<?xml version="1.0" encoding="utf-8"?>
<!-- Generator: Adobe Illustrator 16.0.3, SVG Export Plug-In . SVG Version: 6.00 Build 0)  -->
<!DOCTYPE svg PUBLIC "-//W3C//DTD SVG 1.1//EN" "http://www.w3.org/Graphics/SVG/1.1/DTD/svg11.dtd">
<svg version="1.1" id="Logo" xmlns="http://www.w3.org/2000/svg" xmlns:xlink="http://www.w3.org/1999/xlink" x="0px" y="0px"
	 width="1200px" height="600px" viewBox="0 0 1200 600" enable-background="new 0 0 1200 600" xml:space="preserve">
<g>
	<g>
		<g>
			<path fill="#FFFFFF" d="M268.735,356.105c-2.402,6.533-5.714,12.58-9.936,18.146c-7.875,10.178-17.423,17.76-28.654,22.752
				c-11.232,4.989-23.285,7.488-36.146,7.488c-4.994,0-10.944-0.627-17.854-1.872c-6.914-1.245-14.019-2.83-21.313-4.752
				c-7.298-1.919-14.354-4.031-21.167-6.337c-6.819-2.303-12.529-4.608-17.136-6.911c0.192-1.535,0.719-3.694,1.583-6.48
				c0.863-2.78,1.727-5.71,2.591-8.783c0.864-3.07,1.729-5.997,2.591-8.786c0.866-2.78,1.485-4.939,1.874-6.48
				c0.382-0.955,0.814-2.303,1.295-4.031c0.476-1.729,0.91-3.067,1.296-4.031c0-0.765,0.189-1.342,0.576-1.729v-0.287
				c1.153,0.574,3.025,1.348,5.616,2.303c2.593,0.964,5.373,1.972,8.353,3.026c2.974,1.058,5.903,2.115,8.785,3.167
				c2.878,1.058,5.278,1.872,7.2,2.449c6.335,2.303,12.526,4.368,18.576,6.19c6.048,1.828,12.141,2.736,18.289,2.736
				c3.645,0,7.293-0.621,10.942-1.872c3.645-1.248,6.913-3.023,9.794-5.329c2.878-2.303,5.183-5.083,6.91-8.353
				c1.73-3.261,2.593-6.812,2.593-10.655c0-2.493-0.914-4.796-2.736-6.911c-1.827-2.109-3.986-3.981-6.479-5.616
				c-2.499-1.629-5.139-3.067-7.922-4.321c-2.783-1.245-5.139-2.253-7.055-3.023c-7.875-3.067-16.271-5.947-25.201-8.64
				c-8.927-2.687-17.234-6.19-24.91-10.512c-7.682-4.318-14.019-9.885-19.009-16.704c-4.995-6.813-7.488-15.885-7.488-27.215
				c0-9.981,2.254-18.864,6.769-26.64c4.509-7.777,10.368-14.351,17.568-19.729c7.201-5.373,15.309-9.406,24.335-12.097
				c9.022-2.687,18.045-4.031,27.072-4.031c4.608,0,10.269,0.53,16.994,1.583c6.716,1.056,13.148,2.834,19.295,5.328
				c6.142,2.498,11.375,5.81,15.696,9.936c4.32,4.131,6.479,9.171,6.479,15.12c0,5.184-1.777,9.747-5.328,13.68
				c-3.555,3.938-8.017,5.905-13.392,5.905c-3.456,0-6.962-0.621-10.512-1.874c-3.554-1.245-7.251-2.591-11.089-4.031
				c-3.842-1.44-7.825-2.78-11.95-4.031c-4.132-1.248-8.498-1.874-13.104-1.874c-2.498,0-5.09,0.388-7.775,1.153
				c-2.692,0.769-5.14,1.972-7.345,3.601c-2.21,1.633-4.033,3.555-5.473,5.76c-1.44,2.209-2.159,4.752-2.159,7.632
				c0,3.456,0.908,6.387,2.736,8.783c1.822,2.404,4.125,4.419,6.911,6.048c2.78,1.633,5.76,3.023,8.928,4.176
				c3.167,1.151,6.092,2.115,8.783,2.881c8.064,2.498,16.462,5.281,25.2,8.351c8.736,3.072,16.749,6.961,24.048,11.665
				c7.295,4.707,13.293,10.56,18,17.568c4.704,7.011,7.056,15.694,7.056,26.063C272.335,342.764,271.134,349.581,268.735,356.105z"
				/>
		</g>
		<g>
			<path fill="#FFFFFF" d="M358.159,275.324c-1.729,2.404-3.938,4.32-6.624,5.76c-2.691,1.44-5.666,2.404-8.928,2.88
				c-3.267,0.482-6.437,0.719-9.505,0.719v117.217h-44.064V284.396c-3.073,0-6.192-0.287-9.359-0.863
				c-3.168-0.577-6.098-1.535-8.783-2.881c-2.692-1.34-4.897-3.212-6.625-5.615c-1.729-2.401-2.591-5.518-2.591-9.362
				c0-3.838,0.863-6.955,2.591-9.359c1.729-2.399,3.889-4.27,6.48-5.618c2.591-1.34,5.473-2.253,8.641-2.735
				c3.167-0.476,6.286-0.719,9.359-0.719v-24.192c0-6.142,0.072-6.188,0.072-13.868c8.971-2.033,8.966-1.395,22.393-1.603
				c14.736-0.229,16.907,1.263,22.346,2.222c-0.321,7.359-0.46,7.393-0.46,13.535v23.616c3.069,0,6.239,0.243,9.505,0.719
				c3.262,0.482,6.237,1.441,8.928,2.881c2.687,1.44,4.896,3.36,6.624,5.76c1.727,2.404,2.591,5.616,2.591,9.647
				C360.75,269.807,359.886,272.926,358.159,275.324z M288.75,223.052c0-6.142-0.009,0.211,0.072-13.868
				c5.442,0.195,16.247-1.603,22.393-1.603"/>
		</g>
		<g>
			<path fill="#FFFFFF" d="M482.571,402.477c0-1.154-0.051-2.78-0.145-4.896c-0.1-2.112-0.144-4.222-0.144-6.337
				c0-2.109,0.094-4.799,0.289-8.063c-4.419,7.298-10.081,12.671-16.992,16.125c-6.913,3.457-14.5,5.186-22.752,5.186
				c-10.944,0-20.88-2.162-29.81-6.48c-8.927-4.321-16.513-10.125-22.75-17.426c-6.242-7.292-11.043-15.694-14.399-25.198
				c-3.363-9.504-5.041-19.535-5.041-30.097c0-8.063,1.103-16.028,3.312-23.903c2.203-7.871,5.373-15.021,9.504-21.456
				c4.126-6.431,9.167-11.997,15.12-16.704c5.949-4.702,12.766-8.109,20.446-10.225c6.914-1.729,13.869-2.159,20.881-1.296
				c7.005,0.866,13.248,2.161,18.719,3.889c5.473,1.727,11.663,4.418,18.577,8.063c2.109-5.372,5.086-9.215,8.927-11.52
				c3.839-2.492,7.488-3.983,10.944-4.465c3.457-0.476,6.719-0.524,9.792-0.142c5.184,0.387,9.073,2.402,11.665,6.047
				c2.591,3.65,3.888,7.97,3.888,12.959v135.938H482.571z M478.25,309.163c-1.151-4.796-2.978-9.114-5.471-12.959
				c-2.499-3.838-5.761-6.957-9.792-9.359c-4.033-2.399-8.928-3.601-14.688-3.601s-10.705,1.251-14.832,3.744
				c-4.132,2.498-7.537,5.76-10.225,9.791c-2.691,4.031-4.657,8.546-5.903,13.535c-1.251,4.998-1.872,9.891-1.872,14.689
				c0,4.995,0.621,9.984,1.872,14.977c1.247,4.995,3.168,9.504,5.76,13.535s5.903,7.301,9.935,9.791
				c4.034,2.499,8.93,3.744,14.689,3.744c5.95,0,10.989-1.295,15.12-3.888c4.126-2.593,7.488-5.947,10.08-10.081
				c2.591-4.125,4.414-8.733,5.473-13.822c1.053-5.086,1.583-10.225,1.583-15.407C479.979,318.86,479.403,313.965,478.25,309.163z"
				/>
		</g>
		<g>
			<path fill="#FFFFFF" d="M678.116,272.589c-0.577,2.689-1.538,5.665-2.88,8.927c-0.768,2.88-2.209,7.443-4.318,13.68
				c-2.115,6.242-4.658,13.586-7.635,22.033c-2.977,8.449-6.29,17.616-9.935,27.504c-3.647,9.891-7.395,19.775-11.232,29.663
				c-3.841,9.891-7.632,19.488-11.376,28.802c-3.744,9.311-7.154,17.66-10.225,25.055c-3.07,7.389-5.713,13.436-7.919,18.144
				c-2.212,4.702-3.7,7.345-4.465,7.919c-1.919,4.799-4.562,8.786-7.92,11.953c-3.36,3.17-7.73,4.752-13.103,4.752
				c-5.571,0-10.611-1.872-15.12-5.616c-4.513-3.744-6.768-8.496-6.768-14.256c0-3.457,1.053-7.775,3.168-12.961
				c0.574-1.919,1.822-5.282,3.743-10.081c1.917-4.799,4.033-9.744,6.335-14.83c2.304-5.089,4.417-9.747,6.337-13.969
				c1.917-4.219,3.069-6.718,3.456-7.485l-42.902-119.165l37.069-15.217l28.298,81.387l25.055-75.743
				c1.729-4.991,4.222-9.261,7.488-12.816c3.264-3.551,7.775-5.329,13.535-5.329c5.953,0,11.133,2.017,15.554,6.05
				c4.415,4.031,6.624,9.122,6.624,15.264C678.98,267.79,678.693,269.901,678.116,272.589z"/>
		</g>
		<g>
			<g>
				<path fill="#FFF" d="M920.337,402.055c-22.544-0.146-16.403-0.146-22.544-0.146c-6.146,0-15.158,0.17-22.078-0.009
					c0.111-9.167,0.48-4.878,0.258-19.585v-75.167c0-6.524-2.262-12.141-6.768-16.849c-4.515-4.702-10.131-7.055-16.852-7.055
					s-12.381,2.304-16.992,6.911c-4.605,4.608-6.908,10.181-6.908,16.705v95.039h-43.488V306.86c0-6.718-2.355-12.429-7.058-17.137
					c-4.708-4.702-10.321-7.056-16.849-7.056c-6.721,0-12.434,2.26-17.136,6.769c-4.708,4.515-7.055,10.129-7.055,16.847v95.616
					h-44.065V267.403c0-6.718,2.063-12.141,6.193-16.271c4.125-4.126,9.551-6.193,16.271-6.193c5.76,0,9.979,1.778,12.674,5.329
					c2.684,3.555,4.219,7.92,4.605,13.104c4.415-6.335,10.125-11.089,17.139-14.256c7.005-3.168,14.256-4.752,21.744-4.752
					c8.827,0,17.227,1.922,25.198,5.76c7.966,3.844,14.446,9.315,19.438,16.415c5.76-6.911,12.817-12.24,21.17-15.983
					c8.35-3.743,17.136-5.618,26.35-5.618c8.068,0,15.554,1.252,22.465,3.744c6.914,2.499,12.911,6.1,18,10.8
					c5.086,4.708,9.07,10.37,11.953,16.992c2.88,6.624,4.318,14.067,4.318,22.32v83.52
					C920.322,388.461,920.366,393.412,920.337,402.055z M920.337,402.055c-22.544-0.146,0,0-22.544-0.146
					c-6.146-0.041-10.143,0.272-19.5,0.07 M920.337,402.055c-22.544-0.146-16.403-0.146-22.544-0.146
					c-6.146,0-11.039-0.009-22.078-0.009 M897.793,401.908c-6.146,0-11.039-0.009-22.078-0.009"/>
			</g>
		</g>
		<g>
			<g>
				<path fill="#FFF" d="M1078.578,333.5c-3.557,2.402-8.692,3.601-15.41,3.601h-84.097c2.112,9.214,6.718,16.608,13.825,22.175
					c7.102,5.572,15.551,8.353,25.342,8.353c5.186,0,10.415-0.527,15.697-1.585c5.279-1.052,10.512-2.159,15.697-3.311l6.047,33.984
					c-6.721,2.689-13.395,4.658-20.016,5.903c-6.624,1.245-13.585,1.872-20.88,1.872c-11.713,0-22.608-1.922-32.687-5.76
					c-10.081-3.838-18.867-9.261-26.355-16.271c-7.488-7.008-13.348-15.41-17.566-25.201c-4.225-9.791-6.334-20.736-6.334-32.833
					c0-11.13,1.963-21.501,5.9-31.103c3.935-9.598,9.407-17.95,16.418-25.056c7.008-7.1,15.264-12.718,24.768-16.849
					c9.504-4.125,19.822-6.19,30.961-6.19c9.791,0,19.195,1.97,28.225,5.903c9.021,3.938,16.893,9.265,23.613,15.984
					c6.721,6.722,12.097,14.543,16.131,23.473c4.031,8.927,6.047,18.387,6.047,28.368
					C1083.904,326.255,1082.126,331.101,1078.578,333.5z M1038.113,312.043c-0.193-4.031-1.008-8.016-2.449-11.953
					c-1.441-3.932-3.363-7.437-5.76-10.51c-2.402-3.069-5.326-5.566-8.783-7.487c-3.457-1.919-7.395-2.88-11.81-2.88
					c-4.802,0-8.979,0.913-12.527,2.735c-3.554,1.827-6.53,4.276-8.927,7.345c-2.402,3.073-4.321,6.579-5.76,10.51
					c-1.441,3.938-1.875,3.797-2.449,8.019l59.906-0.398L1038.113,312.043z"/>
			</g>
		</g>
	</g>
</g>
<ellipse fill="#FFF" cx="376.906" cy="210.438" rx="20.193" ry="20.183"/>
<ellipse fill="#FFF" cx="511.722" cy="211.458" rx="20.193" ry="20.183"/>
<polygon fill="#FFF" points="362.746,196.054 390.494,225.368 445.313,174.62 428.113,139.981 "/>
<polygon fill="#FFF" points="524.879,196.054 497.13,225.368 442.313,174.62 460.153,139.981 "/>
<path fill="#FFF" d="M443.394,176.407l17.84-34.639c0,0-17.52-17.52-35.041,0C435.074,159.528,443.394,176.407,443.394,176.407z"
	/>
<ellipse fill="#FFFFFF" cx="563.753" cy="265.123" rx="20.193" ry="20.181"/>
</svg>
