<?xml version="1.0" encoding="utf-8"?>
<!-- Generator: Adobe Illustrator 16.0.3, SVG Export Plug-In . SVG Version: 6.00 Build 0)  -->
<!DOCTYPE svg PUBLIC "-//W3C//DTD SVG 1.1//EN" "http://www.w3.org/Graphics/SVG/1.1/DTD/svg11.dtd">
<svg version="1.1" id="logoWhite" xmlns="http://www.w3.org/2000/svg" xmlns:xlink="http://www.w3.org/1999/xlink" x="0px" y="0px"
	 width="500px" height="500px" viewBox="0 0 500 500" enable-background="new 0 0 500 500" xml:space="preserve">
<g>
	<rect opacity="0" fill="#FFFFFF" width="500.002" height="503.699"/>
	<path fill="#FFFFFF" d="M156.075,298.511c0,22.42-17.959,40.604-40.113,40.604c-22.151,0-40.111-18.185-40.111-40.604
		c0-22.427,17.959-40.604,40.111-40.604C138.115,257.907,156.075,276.084,156.075,298.511z"/>
	<path fill="#FFFFFF" d="M429.836,300.563c0,22.428-17.959,40.604-40.112,40.604s-40.109-18.176-40.109-40.604
		c0-22.42,17.956-40.604,40.109-40.604S429.836,278.143,429.836,300.563z"/>
	<polygon fill="#FFFFFF" points="87.834,269.573 142.954,328.546 262.902,219.628 222.045,152.72 	"/>
	<polygon fill="#FFFFFF" points="415.857,269.573 360.741,328.546 248.333,218.667 287.29,156.769 	"/>
	<path fill="#FFFFFF" d="M256.976,227.114l30.314-70.345c0,0-34.804-35.245-69.608,0
		C235.321,192.497,256.976,227.114,256.976,227.114z"/>
</g>
</svg>
