<?xml version="1.0" encoding="utf-8"?>
<!-- Generator: Adobe Illustrator 16.0.3, SVG Export Plug-In . SVG Version: 6.00 Build 0)  -->
<!DOCTYPE svg PUBLIC "-//W3C//DTD SVG 1.1//EN" "http://www.w3.org/Graphics/SVG/1.1/DTD/svg11.dtd" [
	<!ENTITY ns_flows "http://ns.adobe.com/Flows/1.0/">
	<!ENTITY ns_extend "http://ns.adobe.com/Extensibility/1.0/">
	<!ENTITY ns_ai "http://ns.adobe.com/AdobeIllustrator/10.0/">
	<!ENTITY ns_graphs "http://ns.adobe.com/Graphs/1.0/">
]>
<svg version="1.1" id="bars" xmlns:x="&ns_extend;" xmlns:i="&ns_ai;" xmlns:graph="&ns_graphs;"
	 xmlns="http://www.w3.org/2000/svg" xmlns:xlink="http://www.w3.org/1999/xlink" xmlns:a="http://ns.adobe.com/AdobeSVGViewerExtensions/3.0/"
	 x="0px" y="0px" width="30px" height="30px" viewBox="0 0 300 300" style="enable-background:new 0 0 300 300;"
	 xml:space="preserve">
<g>
	<g>
		<path style="fill:#FFFFFF;" d="M35.985,66.375c47.758,0,95.516,0,143.274,0c27.031,0,54.062,0,81.092,0c19.346,0,19.346-30,0-30
			c-47.758,0-95.517,0-143.274,0c-27.03,0-54.061,0-81.091,0C16.639,36.375,16.639,66.375,35.985,66.375L35.985,66.375z"/>
	</g>
</g>
<g>
	<g>
		<path style="fill:#FFFFFF;" d="M35.985,163.33c47.758,0,95.516,0,143.274,0c27.031,0,54.062,0,81.092,0c19.346,0,19.346-30,0-30
			c-47.758,0-95.517,0-143.274,0c-27.03,0-54.061,0-81.091,0C16.639,133.33,16.639,163.33,35.985,163.33L35.985,163.33z"/>
	</g>
</g>
<g>
	<g>
		<path style="fill:#FFFFFF;" d="M35.985,258.762c47.758,0,95.516,0,143.274,0c27.031,0,54.062,0,81.092,0c19.346,0,19.346-30,0-30
			c-47.758,0-95.517,0-143.274,0c-27.03,0-54.061,0-81.091,0C16.639,228.762,16.639,258.762,35.985,258.762L35.985,258.762z"/>
	</g>
</g>
</svg>
