<?xml version="1.0" encoding="utf-8"?>
<!-- Generator: Adobe Illustrator 16.0.3, SVG Export Plug-In . SVG Version: 6.00 Build 0)  -->
<!DOCTYPE svg PUBLIC "-//W3C//DTD SVG 1.1//EN" "http://www.w3.org/Graphics/SVG/1.1/DTD/svg11.dtd" [
	<!ENTITY ns_flows "http://ns.adobe.com/Flows/1.0/">
	<!ENTITY ns_extend "http://ns.adobe.com/Extensibility/1.0/">
	<!ENTITY ns_ai "http://ns.adobe.com/AdobeIllustrator/10.0/">
	<!ENTITY ns_graphs "http://ns.adobe.com/Graphs/1.0/">
]>
<svg version="1.1" id="close" xmlns:x="&ns_extend;" xmlns:i="&ns_ai;" xmlns:graph="&ns_graphs;"
	 xmlns="http://www.w3.org/2000/svg" xmlns:xlink="http://www.w3.org/1999/xlink" xmlns:a="http://ns.adobe.com/AdobeSVGViewerExtensions/3.0/"
	 x="0px" y="0px" width="30px" height="30px" viewBox="0 0 300 300" style="enable-background:new 0 0 300 300;"
	 xml:space="preserve">
<g>
	<g>
		<path style="fill:#FFFFFF;" d="M25.378,61.982c31.854,27.314,63.708,54.627,95.562,81.941
			c40.876,35.051,81.753,70.102,122.63,105.152c2.058,1.764,4.116,3.528,6.174,5.293c6.201,5.317,15.104,6.11,21.213,0
			c5.447-5.447,6.212-15.887,0-21.213c-31.854-27.313-63.708-54.628-95.562-81.941c-40.877-35.05-81.753-70.101-122.63-105.151
			c-2.058-1.765-4.116-3.529-6.174-5.293c-6.201-5.317-15.103-6.11-21.213,0C19.931,46.216,19.167,56.656,25.378,61.982
			L25.378,61.982z"/>
	</g>
</g>
<g>
	<g>
		<path style="fill:#FFFFFF;" d="M250.814,37.693c-31.526,27.652-63.052,55.305-94.578,82.957
			c-40.629,35.639-81.259,71.275-121.889,106.912c-2.125,1.865-4.25,3.729-6.375,5.594c-6.15,5.395-5.496,15.717,0,21.213
			c6.062,6.061,15.072,5.387,21.213,0c31.526-27.652,63.052-55.305,94.578-82.957c40.629-35.638,81.259-71.276,121.889-106.914
			c2.125-1.864,4.25-3.728,6.375-5.592c6.15-5.395,5.496-15.717,0-21.213C265.966,31.632,256.955,32.307,250.814,37.693
			L250.814,37.693z"/>
	</g>
</g>
</svg>
