<?xml version="1.0" encoding="utf-8"?>
<!-- Generator: Adobe Illustrator 16.0.3, SVG Export Plug-In . SVG Version: 6.00 Build 0)  -->
<!DOCTYPE svg PUBLIC "-//W3C//DTD SVG 1.1//EN" "http://www.w3.org/Graphics/SVG/1.1/DTD/svg11.dtd">
<svg version="1.1" id="Capa_1" xmlns="http://www.w3.org/2000/svg" xmlns:xlink="http://www.w3.org/1999/xlink" x="0px" y="0px" viewBox="0 0 128 128" enable-background="new 0 0 128 128" xml:space="preserve">
<g id="Capa_1_1_">
	<ellipse fill="#F7F7F7" cx="64.222" cy="63.882" rx="48.735" ry="48.829"/>
</g>
<g>
	<path fill="#80E8AD" d="M57.333,86.917c0,0-7.429-3.417-7.929-15.75c-0.5-12.333-2.015-11.404-5.515-11.571
		s-4.44,9.929-0.94,21.071c3.496,11.129,14.384,13.9,14.384,13.9V86.917z"/>
	<g>
		<path fill="#59E297" d="M57.712,86.27c-8.122-3.942-7.118-14.903-8.165-22.29c-0.514-3.627-3.194-6.608-7.105-4.72
			c-2.416,1.166-2.371,5.838-2.443,7.979c-0.186,5.501,1.163,11.399,3.32,16.418c2.364,5.497,8.055,10.09,13.815,11.634
			c0.471,0.126,0.949-0.233,0.949-0.724c0-2.55,0-5.101,0-7.65c0-0.968-1.5-0.968-1.5,0c0,2.361,0,4.723,0,7.084
			c0,0.518,1.49,0.041,0.126-0.414c-1.166-0.388-2.265-0.938-3.347-1.515c-9.764-5.211-13.733-19.026-11.328-29.365
			c0.805-3.458,4.794-2.909,5.706-0.033c1.473,4.646,0.659,9.812,1.813,14.567c0.955,3.935,3.606,8.481,7.4,10.322
			C57.821,87.985,58.582,86.691,57.712,86.27z"/>
	</g>
</g>
<g>
	<path fill="#80E8AD" d="M56.092,111.718V56c0,0-1.329-9.333,8.087-9.333s8.186,8.833,8.186,8.833l0.05,56.178
		C72.414,111.678,66.289,113.769,56.092,111.718z"/>
	<g>
		<path fill="#59E297" d="M56.842,111.718c0-11.907,0-23.814,0-35.723c0-6.071,0-12.142,0-18.213c0-0.788,0.005-1.564-0.049-2.349
			c-0.435-6.278,4.97-9.111,10.745-7.507c4.895,1.36,4.076,7.229,4.079,11.114c0.006,6.701,0.012,13.403,0.018,20.104
			c0.007,7.73,0.014,15.461,0.021,23.191c0.002,2.397,0.004,4.795,0.006,7.192c0.001,0.596,0.001,1.191,0.002,1.788
			c0,0.359,0.995-0.438-0.565-0.067c-4.814,1.146-10.014,0.613-14.808-0.255c-0.945-0.171-1.35,1.274-0.398,1.447
			c5.36,0.971,11.412,1.671,16.721-0.04c0.319-0.104,0.551-0.379,0.551-0.724c-0.011-11.815-0.021-23.631-0.031-35.447
			c-0.006-6.193-0.011-12.387-0.017-18.581c-0.003-3.164,0.223-6.169-1.807-8.873c-3.462-4.614-12.89-3.747-15.138,1.659
			c-1.201,2.888-0.83,6.09-0.83,9.154c0,14.474,0,28.948,0,43.421c0,2.902,0,5.804,0,8.706
			C55.342,112.686,56.842,112.686,56.842,111.718z"/>
	</g>
</g>
<g>
	<path fill="#80E8AD" d="M72.417,74.5c0,0,6.55-0.52,7.049-10.386s2.493-9.733,5.981-9.866c3.489-0.135,4.818,8.933,1.329,17.847
		c-3.485,8.902-14.359,11.619-14.359,11.619V74.5z"/>
	<g>
		<path fill="#59E297" d="M72.417,75.25c3.125-0.338,5.328-2.782,6.605-5.468c1.62-3.404,1.127-7.549,1.821-11.154
			c0.289-1.504,0.897-2.974,2.467-3.447c3.547-1.07,4.461,2.627,4.723,5.284c0.987,9.999-4.768,18.294-13.76,21.849
			c-0.589,0.232-1.193,0.426-1.8,0.606c-0.525,0.094-0.294,0.313,0.693,0.658c0-0.563,0-1.128,0-1.691c0-2.463,0-4.925,0-7.388
			c0-0.968-1.5-0.968-1.5,0c0,3.071,0,6.143,0,9.214c0,0.492,0.479,0.847,0.949,0.724c4.669-1.221,8.992-3.946,12.166-7.549
			c4.458-5.062,6.97-16.068,3.126-22.071c-1.687-2.633-6.133-1.24-7.576,0.851c-3.426,4.958,0.733,17.146-7.915,18.082
			C71.466,73.853,71.456,75.354,72.417,75.25z"/>
	</g>
</g>
<g>
	<g>
		<path fill="#E5E5E5" d="M109.591,42.659c-5.263,1.222-11.996,2.157-17.038-0.208c-4.447-2.086-3.832-9.159,1.309-9.594
			c1.605-0.136,3.229,0.432,4.568,1.269c3.7,2.313-1.896,5.965-3.449,2.878c-0.435-0.864-1.729-0.104-1.295,0.757
			c2.314,4.602,8.956,1.932,7.424-2.703c-1.42-4.295-8.504-4.593-11.397-2.035c-4.875,4.309,0.242,10.504,4.806,11.707
			c4.875,1.284,10.618,0.502,15.472-0.625C110.932,43.886,110.532,42.44,109.591,42.659L109.591,42.659z"/>
	</g>
</g>
<g>
	<g>
		<path fill="#E5E5E5" d="M41.106,96.718c-5.263,1.222-11.997,2.157-17.038-0.207c-4.447-2.087-3.832-9.159,1.309-9.595
			c1.606-0.137,3.229,0.432,4.568,1.27c3.701,2.313-1.896,5.965-3.449,2.877c-0.435-0.864-1.729-0.104-1.295,0.758
			c2.314,4.602,8.956,1.932,7.424-2.703c-1.419-4.295-8.503-4.594-11.398-2.035c-4.875,4.309,0.243,10.504,4.806,11.707
			c4.875,1.284,10.618,0.502,15.472-0.624C42.447,97.946,42.047,96.5,41.106,96.718L41.106,96.718z"/>
	</g>
</g>
</svg>
