<?xml version="1.0" encoding="utf-8"?>
<!-- Generator: Adobe Illustrator 16.0.3, SVG Export Plug-In . SVG Version: 6.00 Build 0)  -->
<!DOCTYPE svg PUBLIC "-//W3C//DTD SVG 1.1//EN" "http://www.w3.org/Graphics/SVG/1.1/DTD/svg11.dtd">
<svg version="1.1" id="Capa_1" xmlns="http://www.w3.org/2000/svg" xmlns:xlink="http://www.w3.org/1999/xlink" x="0px" y="0px"
	  viewBox="0 0 128 128" enable-background="new 0 0 128 128" xml:space="preserve">
<g id="search-illo" transform="translate(83.000000, 158.000000)">
	<path id="Path-3" opacity="0.5144" fill="#D4FFE6" enable-background="new    " d="M-69.297-113.157
		c6.868-13.748-5.121-29.519,9.726-31.837c14.846-2.318,4.903,11.24,18.072,13.161c13.17,1.921,27.456-26.881,40.667-19.667
		c13.211,7.214,6.788,21.163,13.5,29.5c6.713,8.336,11.279-3.105,18.5,2.333c8.668,6.529-2.177,17.375,0.5,22.938
		c3.431,7.131,13.777,7.418,7.802,18.208c-2.647,4.78-8.829,5.007-12.302,7.854c-4.363,3.579,0.688,18.493-3.667,23.833
		C14.898-36.286-2.389-33.278-9.666-39c-9.346-7.345-7.361-12.438-9.156-20.833c-0.56-3.86-1.815-7.343-7.011-4.833
		C-28.257-63.495-26.939-54.914-36-53.5c-6.625,1.035-9.075-3.131-15.833-3.5c-6.758-0.37-12.534,11.977-19.833,8.834
		c-3.294-1.417,3.599-29.66,2.599-35.633c-0.659-3.935-5.905-2.695-7.012-3.474C-82.929-92.09-76.165-99.408-69.297-113.157
		L-69.297-113.157z"/>
</g>
</svg>
