<?xml version="1.0" encoding="utf-8"?>
<!-- Generator: Adobe Illustrator 16.0.3, SVG Export Plug-In . SVG Version: 6.00 Build 0)  -->
<!DOCTYPE svg PUBLIC "-//W3C//DTD SVG 1.1//EN" "http://www.w3.org/Graphics/SVG/1.1/DTD/svg11.dtd">
<svg version="1.1" id="Capa_1" xmlns="http://www.w3.org/2000/svg" xmlns:xlink="http://www.w3.org/1999/xlink" x="0px" y="0px"
	 viewBox="0 0 128 128" enable-background="new 0 0 128 128" xml:space="preserve">
<g id="Capa_1_1_">
	<ellipse fill="#F7F7F7" cx="62.222" cy="63.882" rx="48.735" ry="48.829"/>
</g>
<g id="Capa_2">
	<g>
		<g>
			<circle fill="#FFFFFF" cx="38.891" cy="68.854" r="15.361"/>
			<g>
				<path fill="#BFBFBF" d="M53.717,68.852c-0.256,8.273-6.557,14.572-14.826,14.83c-8.269,0.256-14.583-6.945-14.828-14.83
					c-0.257-8.266,6.944-14.58,14.828-14.826C47.159,53.769,53.473,60.97,53.717,68.852c0.021,0.688,1.089,0.689,1.067,0
					c-0.275-8.856-7.036-15.616-15.894-15.892c-8.854-0.275-15.632,7.449-15.895,15.892c-0.275,8.855,7.449,15.633,15.895,15.896
					c8.854,0.275,15.63-7.451,15.894-15.896C54.806,68.164,53.739,68.166,53.717,68.852z"/>
			</g>
		</g>
		<circle fill="#BFBFBF" cx="32.453" cy="67.054" r="1.603"/>
		<circle fill="#BFBFBF" cx="45.807" cy="67.054" r="1.603"/>
		<g>
			<g>
				<path fill="#BFBFBF" d="M33.965,71.926c2.926,2.787,6.934,2.695,9.852,0c0.506-0.467-0.252-1.221-0.756-0.754
					c-2.494,2.305-5.869,2.355-8.34,0C34.223,70.697,33.466,71.451,33.965,71.926L33.965,71.926z"/>
			</g>
		</g>
	</g>
	<g>
		<g>
			<circle fill="#FFFFFF" cx="86.629" cy="68.908" r="15.361"/>
			<g>
				<path fill="#BFBFBF" d="M101.455,68.907c-0.256,8.272-6.557,14.571-14.826,14.829c-8.269,0.256-14.583-6.945-14.828-14.829
					c-0.257-8.267,6.944-14.581,14.828-14.826C94.896,53.824,101.211,61.025,101.455,68.907c0.021,0.688,1.089,0.689,1.067,0
					c-0.275-8.857-7.036-15.617-15.894-15.893c-8.854-0.275-15.632,7.449-15.895,15.893c-0.275,8.854,7.449,15.632,15.895,15.896
					c8.854,0.275,15.63-7.451,15.894-15.896C102.544,68.22,101.477,68.222,101.455,68.907z"/>
			</g>
		</g>
		<circle fill="#BFBFBF" cx="80.19" cy="67.109" r="1.603"/>
		<circle fill="#BFBFBF" cx="93.545" cy="67.109" r="1.603"/>
		<g>
			<g>
				<path fill="#BFBFBF" d="M81.703,71.98c2.926,2.787,6.934,2.695,9.852,0c0.506-0.467-0.252-1.221-0.756-0.754
					c-2.494,2.305-5.869,2.355-8.34,0C81.961,70.752,81.204,71.506,81.703,71.98L81.703,71.98z"/>
			</g>
		</g>
	</g>
	<g>
		<g>
			<circle fill="#FFFFFF" cx="62.826" cy="56.078" r="15.361"/>
			<g>
				<path fill="#BFBFBF" d="M77.652,56.078c-0.256,8.272-6.557,14.571-14.826,14.829c-8.268,0.256-14.583-6.945-14.828-14.829
					c-0.257-8.267,6.945-14.581,14.828-14.827C71.094,40.994,77.408,48.195,77.652,56.078c0.021,0.687,1.089,0.688,1.067,0
					c-0.275-8.857-7.036-15.617-15.894-15.893c-8.855-0.275-15.632,7.449-15.895,15.893c-0.275,8.854,7.449,15.631,15.895,15.895
					c8.854,0.275,15.63-7.451,15.894-15.895C78.741,55.389,77.674,55.391,77.652,56.078z"/>
			</g>
		</g>
		<circle fill="#BFBFBF" cx="56.388" cy="54.279" r="1.603"/>
		<circle fill="#BFBFBF" cx="69.742" cy="54.279" r="1.603"/>
		<g>
			<g>
				<path fill="#BFBFBF" d="M57.901,59.15c2.925,2.787,6.933,2.695,9.851,0c0.506-0.467-0.252-1.221-0.756-0.754
					c-2.494,2.305-5.869,2.355-8.34,0C58.158,57.922,57.402,58.676,57.901,59.15L57.901,59.15z"/>
			</g>
		</g>
	</g>
	<path fill="#54D694" stroke="#3AB572" stroke-miterlimit="10" d="M85.563,78.797c-0.004,5.477-4.447,9.914-9.923,9.91l-27.635-0.02
		c-5.477-0.003-9.915-4.447-9.91-9.924l0,0c0.003-5.477,4.447-9.914,9.923-9.91l27.636,0.02
		C81.129,68.876,85.566,73.32,85.563,78.797L85.563,78.797z"/>
	<g>
		<path fill="#FFFFFF" d="M56.099,83.804c-0.215,0.215-0.481,0.322-0.798,0.322c-0.168,0-0.329-0.037-0.483-0.112
			c-0.154-0.074-0.282-0.177-0.385-0.308l-4.55-6.174V84h-2.226v-9.072c0-0.308,0.107-0.574,0.322-0.798
			c0.214-0.224,0.48-0.336,0.798-0.336c0.187,0,0.362,0.049,0.525,0.147c0.164,0.098,0.301,0.222,0.413,0.37l4.48,6.021v-5.39
			c0-0.149,0.03-0.294,0.091-0.435c0.061-0.14,0.14-0.261,0.238-0.364c0.098-0.103,0.215-0.184,0.35-0.244s0.277-0.092,0.427-0.092
			s0.294,0.031,0.434,0.092c0.14,0.061,0.259,0.142,0.357,0.244c0.098,0.104,0.177,0.223,0.238,0.357
			c0.061,0.136,0.091,0.278,0.091,0.427v8.092C56.42,83.328,56.313,83.59,56.099,83.804z"/>
		<path fill="#FFFFFF" d="M57.785,83.902c-0.135-0.065-0.252-0.149-0.35-0.252c-0.098-0.103-0.175-0.225-0.231-0.364
			s-0.084-0.285-0.084-0.435v-8.945c0.028,0,0.175,0.002,0.441,0.007c0.266,0.005,0.558,0.007,0.875,0.007c0.327,0,0.621,0,0.882,0
			c0.271,0,0.42,0,0.448,0h2.156c0.271,0,0.499,0.096,0.687,0.287c0.187,0.191,0.279,0.423,0.279,0.693s-0.096,0.501-0.286,0.692
			c-0.191,0.191-0.423,0.287-0.693,0.287h-2.562v2.114h2.282c0.149,0,0.287,0.028,0.413,0.084s0.24,0.131,0.343,0.224
			c0.187,0.168,0.28,0.388,0.28,0.658c0,0.28-0.101,0.511-0.301,0.693c-0.201,0.182-0.437,0.272-0.707,0.272h-2.31v2.114h3.724V84
			h-4.844C58.067,84,57.92,83.968,57.785,83.902z"/>
		<path fill="#FFFFFF" d="M76.118,75.152l-1.693,7.699c-0.084,0.393-0.255,0.703-0.512,0.932s-0.595,0.343-1.015,0.343
			c-0.346,0-0.648-0.101-0.91-0.301c-0.261-0.201-0.443-0.465-0.546-0.791l-1.582-5.433l-1.582,5.433
			c-0.103,0.336-0.284,0.602-0.546,0.798s-0.564,0.294-0.91,0.294c-0.42,0-0.758-0.112-1.015-0.336s-0.427-0.532-0.511-0.924
			l-1.904-8.681l2.184-0.363l1.484,7.098l1.778-6.258h2.029l1.778,6.258l1.274-6.132c0.056-0.271,0.177-0.502,0.363-0.693
			c0.187-0.19,0.43-0.287,0.729-0.287c0.308,0,0.574,0.107,0.798,0.322s0.336,0.48,0.336,0.798
			C76.146,74.984,76.137,75.059,76.118,75.152z"/>
	</g>
</g>
</svg>
