<?xml version="1.0" encoding="utf-8"?>
<!-- Generator: Adobe Illustrator 16.0.3, SVG Export Plug-In . SVG Version: 6.00 Build 0)  -->
<!DOCTYPE svg PUBLIC "-//W3C//DTD SVG 1.1//EN" "http://www.w3.org/Graphics/SVG/1.1/DTD/svg11.dtd">
<svg version="1.1" id="Capa_1" xmlns="http://www.w3.org/2000/svg" xmlns:xlink="http://www.w3.org/1999/xlink" x="0px" y="0px"
	 width="32px" height="32px" viewBox="0 0 32 32" enable-background="new 0 0 32 32" xml:space="preserve">
<circle fill="#BFBFBF" cx="10.042" cy="14.314" r="1.503"/>
<circle fill="#BFBFBF" cx="22.563" cy="14.314" r="1.503"/>
<g>
	<g>
		<path fill="#BFBFBF" d="M11.284,19.059c2.841,2.707,6.753,2.621,9.588,0c0.712-0.658-0.353-1.717-1.062-1.062
			c-2.235,2.065-5.248,2.114-7.467,0C11.645,17.33,10.582,18.391,11.284,19.059L11.284,19.059z"/>
	</g>
</g>
<g>
	<g>
		<path fill="#BFBFBF" d="M30.027,16C29.174,33.963,2.982,33.963,2.128,16C1.754,8.139,8.768,2.397,16.078,2.05
			C23.939,1.676,29.682,8.689,30.027,16c0.027,0.578,0.929,0.581,0.9,0c-0.398-8.377-6.473-14.452-14.85-14.85
			C7.713,0.752,1.598,8.222,1.228,16C0.831,24.364,8.3,30.48,16.078,30.852C24.443,31.248,30.559,23.779,30.93,16
			C30.956,15.419,30.057,15.422,30.027,16z"/>
	</g>
</g>
</svg>
