<?xml version="1.0" encoding="utf-8"?>
<!-- Generator: Adobe Illustrator 16.0.3, SVG Export Plug-In . SVG Version: 6.00 Build 0)  -->
<!DOCTYPE svg PUBLIC "-//W3C//DTD SVG 1.1//EN" "http://www.w3.org/Graphics/SVG/1.1/DTD/svg11.dtd">
<svg version="1.1" xmlns="http://www.w3.org/2000/svg" xmlns:xlink="http://www.w3.org/1999/xlink"  x="0px" y="0px"
	 viewBox="0 0 180 180" style="enable-background:new 0 0 180 180;" xml:space="preserve">
<g id="Capa_1">
	<ellipse fill="#F7F7F7" cx="87.5" cy="89.833" rx="68.533" ry="68.666"/>
</g>
<g id="Capa_2">
	<g>
		<g>
			<circle fill="#FFFFFF" cx="89.678" cy="88.116" r="21.601"/>
			<g>
				<path fill="#BFBFBF" d="M110.528,88.116c-0.361,11.631-9.22,20.489-20.851,20.851c-11.626,0.361-20.506-9.766-20.851-20.851
					c-0.362-11.626,9.766-20.505,20.851-20.85C101.304,66.904,110.184,77.031,110.528,88.116c0.03,0.965,1.53,0.968,1.5,0
					c-0.388-12.456-9.895-21.962-22.351-22.35c-12.451-0.387-21.981,10.476-22.351,22.35c-0.387,12.451,10.476,21.981,22.351,22.351
					c12.451,0.388,21.981-10.477,22.351-22.351C112.059,87.148,110.559,87.151,110.528,88.116z"/>
			</g>
		</g>
		<circle fill="#BFBFBF" cx="80.624" cy="85.587" r="2.254"/>
		<circle fill="#BFBFBF" cx="99.404" cy="85.587" r="2.254"/>
		<g>
			<g>
				<path fill="#BFBFBF" d="M82.752,92.437c4.113,3.919,9.75,3.791,13.852,0c0.712-0.658-0.352-1.716-1.061-1.061
					c-3.507,3.241-8.254,3.313-11.73,0C83.113,90.709,82.05,91.769,82.752,92.437L82.752,92.437z"/>
			</g>
		</g>
	</g>
	<g>
		<g>
			<circle fill="#FFFFFF" cx="61.277" cy="108.116" r="21.601"/>
			<g>
				<path fill="#BFBFBF" d="M82.128,108.116c-0.362,11.631-9.22,20.489-20.851,20.851c-11.626,0.361-20.506-9.766-20.851-20.851
					c-0.362-11.626,9.766-20.505,20.851-20.85C72.903,86.904,81.783,97.031,82.128,108.116c0.03,0.965,1.53,0.968,1.5,0
					c-0.388-12.456-9.895-21.962-22.351-22.35c-12.451-0.387-21.981,10.476-22.351,22.35c-0.387,12.451,10.476,21.981,22.351,22.351
					c12.452,0.388,21.981-10.477,22.351-22.351C83.658,107.148,82.158,107.151,82.128,108.116z"/>
			</g>
		</g>
		<circle fill="#BFBFBF" cx="52.223" cy="105.587" r="2.254"/>
		<circle fill="#BFBFBF" cx="71.004" cy="105.587" r="2.254"/>
		<g>
			<path fill="#BFBEBE" d="M54.882,111.907c0,0,5.493,1.927,12.791,0c0,0-0.493,5.802-6.396,5.552S54.882,111.907,54.882,111.907z"
				/>
			<g>
				<path fill="#BFBFBF" d="M54.683,112.63c4.181,1.416,8.987,1.026,13.189,0c-0.316-0.241-0.633-0.482-0.949-0.724
					c-0.631,6.375-10.613,6.232-11.291,0c-0.104-0.951-1.604-0.961-1.5,0c0.888,8.161,13.468,8.313,14.291,0
					c0.05-0.503-0.514-0.829-0.949-0.724c-3.941,0.963-8.466,1.331-12.393,0C54.163,110.873,53.771,112.322,54.683,112.63z"/>
			</g>
		</g>
	</g>
	<g>
		<g>
			<circle fill="#FFFFFF" cx="113.005" cy="109.442" r="21.601"/>
			<g>
				<path fill="#BFBFBF" d="M133.855,109.442c-0.361,11.631-9.22,20.489-20.851,20.851c-11.626,0.361-20.506-9.766-20.851-20.851
					c-0.361-11.626,9.767-20.505,20.851-20.85C124.631,88.23,133.511,98.357,133.855,109.442c0.03,0.965,1.53,0.968,1.5,0
					c-0.388-12.456-9.895-21.962-22.351-22.35c-12.451-0.387-21.981,10.476-22.351,22.35c-0.387,12.451,10.477,21.981,22.351,22.351
					c12.451,0.388,21.981-10.477,22.351-22.351C135.386,108.474,133.886,108.477,133.855,109.442z"/>
			</g>
		</g>
		<g>
			<g>
				<path fill="#BFBFBF" d="M106.079,113.763c4.113,3.919,9.75,3.791,13.852,0c0.712-0.658-0.352-1.716-1.061-1.061
					c-3.507,3.241-8.254,3.313-11.73,0C106.439,112.036,105.378,113.095,106.079,113.763L106.079,113.763z"/>
			</g>
		</g>
		<g>
			<g>
				<path fill="#BFBFBF" d="M101.011,104.712c2.113,2.766,5.584,2.985,8.306,0.956c0.766-0.571,0.019-1.874-0.758-1.295
					c-1.39,1.036-2.939,1.627-4.599,0.863c-0.441-0.203-0.837-0.498-1.197-0.819c-0.104-0.094-0.631-0.69-0.457-0.463
					C101.727,103.198,100.423,103.943,101.011,104.712L101.011,104.712z"/>
			</g>
		</g>
		<g>
			<g>
				<path fill="#BFBFBF" d="M116.948,105.726c2.113,2.766,5.584,2.985,8.306,0.956c0.766-0.571,0.019-1.874-0.758-1.295
					c-1.39,1.036-2.939,1.627-4.599,0.863c-0.441-0.203-0.837-0.498-1.197-0.819c-0.104-0.094-0.631-0.69-0.457-0.463
					C117.664,104.211,116.36,104.957,116.948,105.726L116.948,105.726z"/>
			</g>
		</g>
	</g>
</g>
<g id="gorro">
	<g>
		<path fill="#65EFA3" d="M80.624,68.083c0,0,10.656,5.25,18.781,0.313c-4.904-6.938-10.123-14-10.123-14L80.624,68.083z"/>
		<g>
			<path fill="#54D694" d="M80.434,68.407c5.944,2.858,13.266,3.553,19.16,0.313c0.167-0.092,0.25-0.349,0.135-0.513
				c-3.33-4.698-6.703-9.367-10.123-14c-0.167-0.226-0.486-0.255-0.648,0c-2.885,4.563-5.771,9.125-8.657,13.688
				c-0.259,0.41,0.39,0.786,0.647,0.379c1.509-2.385,3.017-4.77,4.525-7.155c0.951-1.503,1.902-3.006,2.853-4.51
				c0.31-0.489,0.619-0.979,0.929-1.469c0.517-0.816-0.205-0.43-0.11-0.303c1.239,1.68,2.469,3.367,3.697,5.055
				c0.999,1.373,1.992,2.75,2.984,4.128c0.54,0.751,1.079,1.504,1.616,2.257c1.405,1.966,1.102,2.326-1.276,3.161
				c-4.783,1.678-10.874,0.475-15.352-1.679C80.379,67.551,79.999,68.198,80.434,68.407z"/>
		</g>
	</g>
	<path fill="#54D694" d="M82.5,65.961c0,0,11.071,0.289,12.375-3.169c-1.379-2.073-1.981-2.974-1.981-2.974
		s-1.156,3.072-8.353,2.639C82.5,65.961,82.5,65.961,82.5,65.961z"/>
	<ellipse fill="#7AEAAA" cx="30.031" cy="47.624" rx="11.064" ry="13.388"/>
	<path fill="none" stroke="#7AEAAA" stroke-miterlimit="10" d="M31,61.012c0,0,2.167,3.02,0,5.504S29.061,72.167,30.03,74
		s2.088,4.833,0.612,7.333"/>
	<path fill="#AEFFCF" d="M152.197,75.761c6.109,0,11.063,5.994,11.063,13.388c0,7.394-4.954,13.388-11.063,13.388
		c-6.111,0-11.064-5.994-11.064-13.388C141.133,81.755,146.086,75.761,152.197,75.761"/>
	<path fill="none" stroke="#AEFFCF" stroke-miterlimit="10" d="M156.391,99.281c0,0,2.166,3.02,0,5.504s-1.939,5.652-0.97,7.484
		c0.97,1.834,2.088,4.834,0.612,7.334"/>
</g>
</svg>
